<svg width="387" height="218" viewBox="0 0 387 218" fill="none" xmlns="http://www.w3.org/2000/svg">
<path d="M381.779 217.622C383.711 217.677 385.322 216.155 385.376 214.223L386.269 182.736C386.323 180.803 384.801 179.193 382.869 179.138C380.937 179.083 379.326 180.605 379.271 182.537L378.478 210.526L350.49 209.733C348.557 209.678 346.947 211.2 346.892 213.133C346.837 215.065 348.359 216.675 350.291 216.73L381.779 217.622ZM0.5639 1.66574C1.2447 5.17955 2.0042 8.65354 2.84358 12.0846L9.64306 10.4212C8.83124 7.10275 8.09587 3.7395 7.4361 0.334256L0.5639 1.66574ZM8.98572 32.5149C11.4294 39.2882 14.2322 45.8475 17.405 52.1642L23.6603 49.0222C20.6178 42.9649 17.9237 36.6623 15.5703 30.1393L8.98572 32.5149ZM28.2366 70.6418C32.2559 76.5584 36.6709 82.1893 41.492 87.5039L46.6766 82.8008C42.0804 77.734 37.8669 72.361 34.0269 66.7083L28.2366 70.6418ZM57.0085 102.324C62.4383 106.813 68.2504 110.977 74.4523 114.79L78.1183 108.826C72.192 105.183 66.6456 101.209 61.4688 96.9288L57.0085 102.324ZM93.3896 124.772C99.7299 127.611 106.397 130.137 113.396 132.33L115.489 125.65C108.743 123.536 102.333 121.107 96.2502 118.384L93.3896 124.772ZM134.032 137.624C140.779 138.997 147.79 140.098 155.067 140.913L155.846 133.956C148.767 133.164 141.963 132.095 135.429 130.764L134.032 137.624ZM176.268 142.443C179.75 142.563 183.286 142.624 186.878 142.624V135.624C183.365 135.624 179.909 135.565 176.509 135.447L176.268 142.443ZM186.878 142.624C190.57 142.624 194.176 142.649 197.7 142.701L197.802 135.702C194.243 135.65 190.602 135.624 186.878 135.624V142.624ZM219.31 143.392C226.869 143.779 234.004 144.314 240.76 144.999L241.466 138.035C234.582 137.337 227.331 136.794 219.668 136.401L219.31 143.392ZM262.057 147.859C269.498 149.134 276.428 150.645 282.937 152.397L284.756 145.638C278.019 143.824 270.875 142.268 263.239 140.96L262.057 147.859ZM303.148 159.112C309.909 161.835 316.228 164.908 322.252 168.344L325.72 162.263C319.423 158.672 312.819 155.46 305.762 152.619L303.148 159.112ZM339.995 180.056C345.55 184.232 350.975 188.789 356.413 193.744L361.128 188.57C355.557 183.493 349.962 178.791 344.201 174.46L339.995 180.056ZM371.841 208.724C374.307 211.246 376.8 213.846 379.334 216.528L384.422 211.72C381.866 209.015 379.344 206.385 376.846 203.83L371.841 208.724Z" fill="#22201E"/>
</svg>
